<svg width="34" height="34" xmlns="http://www.w3.org/2000/svg">
  <path fill="#FD003A" d="m17,0.86695c-6.25799,0 -11.34355,5.08569 -11.34355,11.34355c0,2.11746 0.58621,4.17827 1.7016,5.95543l8.87299,14.52063c0.15137,0.24578 0.37824,0.39709 0.64299,0.4349c0.35909,0.05665 0.7563,-0.09453 0.9642,-0.45374l8.89839,-14.6531c1.05861,-1.73928 1.60694,-3.76222 1.60694,-5.80412c0,-6.25786 -5.08557,-11.34355 -11.34355,-11.34355zm0,17.01533c-3.17607,0 -5.67178,-2.57121 -5.67178,-5.67178c0,-3.11954 2.55224,-5.67178 5.67178,-5.67178s5.67178,2.55224 5.67178,5.67178c0,3.08167 -2.45783,5.67178 -5.67178,5.67178z" />
</svg>