<svg width="34" height="34" xmlns="http://www.w3.org/2000/svg">
	<path fill="#13C93F" d="m17,33c8.8366,0 16,-7.1634 16,-16c0,-8.8366 -7.1634,-16 -16,-16c-8.83656,0 -16,7.1634 -16,16c0,8.8366 7.16344,16 16,16z" id="Oval-Copy-4"/>
	<path fill="#073F15" d="m33,17c0,8.8366 -7.1634,16 -16,16c-8.83656,0 -16,-7.1634 -16,-16c0,-8.8366 7.16344,-16 16,-16c8.8366,0 16,7.1634 16,16zm-29.33333,0c0,7.3638 5.96953,13.3333 13.33333,13.3333c7.3638,0 13.3333,-5.9695 13.3333,-13.3333c0,-7.3638 -5.9695,-13.3333 -13.3333,-13.3333c-7.3638,0 -13.33333,5.9695 -13.33333,13.3333z" clip-rule="evenodd" fill-rule="evenodd" />
	<path fill="#ADE347" d="m17,24.1111c3.9274,0 7.1111,-3.1837 7.1111,-7.1111c0,-3.9273 -3.1837,-7.1111 -7.1111,-7.1111c-3.9274,0 -7.11111,3.1838 -7.11111,7.1111c0,3.9274 3.18371,7.1111 7.11111,7.1111z" />
	<path fill="#073F15" d="m15.6667,8.5556c0,0.7364 1,2.6667 1.3333,2.6667c0.3333,0 1.3333,-1.9303 1.3333,-2.6667c0,-0.7364 -0.5969,-1.3333 -1.3333,-1.3333c-0.7364,0 -1.3333,0.5969 -1.3333,1.3333zm6.3616,1.5305c-0.5207,0.5207 -1.1785,2.5928 -0.9428,2.8285c0.2357,0.2357 2.3077,-0.4221 2.8284,-0.9428c0.5207,-0.5207 0.5207,-1.365 0,-1.8857c-0.5207,-0.5207 -1.3649,-0.5207 -1.8856,0zm0.7495,6.914c0,-0.3334 1.9303,-1.3334 2.6667,-1.3334c0.7363,0 1.3333,0.597 1.3333,1.3334c0,0.7363 -0.597,1.3333 -1.3333,1.3333c-0.7364,0 -2.6667,-1 -2.6667,-1.3333zm1.1361,5.0283c-0.5207,-0.5207 -2.5927,-1.1785 -2.8284,-0.9428c-0.2357,0.2357 0.4221,2.3077 0.9428,2.8284c0.5207,0.5207 1.3649,0.5207 1.8856,0c0.5207,-0.5207 0.5207,-1.3649 0,-1.8856zm-6.9139,0.7494c0.3333,0 1.3333,1.9303 1.3333,2.6667c0,0.7364 -0.5969,1.3333 -1.3333,1.3333c-0.7364,0 -1.3333,-0.5969 -1.3333,-1.3333c0,-0.7364 1,-2.6667 1.3333,-2.6667zm-5.0283,1.1362c0.5207,-0.5207 1.1785,-2.5927 0.9428,-2.8284c-0.2357,-0.2357 -2.30773,0.4221 -2.82843,0.9428c-0.5207,0.5207 -0.5207,1.3649 0,1.8856c0.5207,0.5207 1.36493,0.5207 1.88563,0zm-0.7495,-6.9139c0,0.3333 -1.93026,1.3333 -2.66664,1.3333c-0.73638,0 -1.33333,-0.597 -1.33333,-1.3333c0,-0.7364 0.59695,-1.3334 1.33333,-1.3334c0.73638,0 2.66664,1 2.66664,1.3334zm-1.13613,-5.0283c0.5207,0.5207 2.59273,1.1785 2.82843,0.9428c0.2357,-0.2357 -0.4221,-2.3078 -0.9428,-2.8285c-0.5207,-0.5207 -1.36493,-0.5207 -1.88563,0c-0.5207,0.5207 -0.5207,1.365 0,1.8857z" clip-rule="evenodd" fill-rule="evenodd" />
	<path fill="white" d="m17,20.1111c1.7182,0 3.1111,-1.3929 3.1111,-3.1111c0,-1.7182 -1.3929,-3.1111 -3.1111,-3.1111c-1.7182,0 -3.1111,1.3929 -3.1111,3.1111c0,1.7182 1.3929,3.1111 3.1111,3.1111z" />
</svg>