<svg width="34" height="34" xmlns="http://www.w3.org/2000/svg">
	<g fill-rule="evenodd" fill="none" id="Artboard">
		<circle stroke="#2db372" stroke-width="2px" fill="#34D186" r="16" cy="17" cx="17"/>
		<path fill="#FFFFFF" d="m24.45468,11l0,11.27774l-2.51219,0l0,-10.71373l2.51219,-0.56401l0,0zm-7.15249,12.34649c0.69353,0 1.2561,0.59401 1.2561,1.32676c0,0.73275 -0.56256,1.32675 -1.2561,1.32675c-0.69354,0 -1.2561,-0.594 -1.2561,-1.32675c0,-0.73275 0.56222,-1.32676 1.2561,-1.32676zm0,-9.14361c2.13867,0 3.876,1.83149 3.876,4.09425c0,2.26312 -1.73734,4.09499 -3.876,4.09499c-2.14219,0 -3.876,-1.83187 -3.876,-4.09499c0,-2.26276 1.73734,-4.09425 3.876,-4.09425zm0,5.421c0.69423,0 1.2561,-0.59326 1.2561,-1.32675c0,-0.73313 -0.56186,-1.32676 -1.2561,-1.32676c-0.69424,0 -1.2561,0.59363 -1.2561,1.32676c0,0.73349 0.56186,1.32675 1.2561,1.32675zm-7.9027,0c0.43302,0 0.78506,-0.37201 0.78506,-0.82876c-0.00233,-0.45972 -0.35347,-0.83075 -0.78506,-0.8295l-1.88378,0l0,1.65826l1.88378,0zm-1.88378,-5.97l0,1.65825l1.3955,0c0.43266,0 0.78506,-0.37237 0.78506,-0.8295c-0.00271,-0.45943 -0.35374,-0.83 -0.78506,-0.82875l-1.3955,0l0,0zm4.19707,2.66062c0.60692,0.63374 0.98396,1.51125 0.98046,2.48025c0,1.92375 -1.47578,3.48299 -3.29727,3.48299l-4.39597,0l0,-11.27774l3.90769,0c1.82113,0 3.29691,1.55887 3.29691,3.48262c0,0.67125 -0.17779,1.30124 -0.49181,1.83187l-0.00001,0.00001zm17.48676,0.693l-1.25257,0l0,2.08238c0,0.63 0.19186,1.09424 0.69422,1.09424c0.32459,0 0.56187,-0.07725 0.56187,-0.07725l0,1.95337c0,0 -0.51998,0.33151 -1.22477,0.33151l-0.03134,0c-0.03169,0 -0.05914,-0.00376 -0.09083,-0.00376l-0.02429,0c-0.01408,0 -0.03169,-0.00375 -0.04541,-0.00375c-1.40254,-0.07725 -2.35517,-1.0095 -2.35517,-2.62762l0,-6.86625l2.51218,-0.56362l0,2.02688l1.25611,0l0,2.65388l0,-0.00001z" />
	</g>
</svg>