<svg width="34" height="34" xmlns="http://www.w3.org/2000/svg" preserveAspectRatio="xMidYMid meet">
  <ellipse stroke="#00ad00" stroke-width="2" ry="15" rx="15" id="svg_7" cy="17" cx="17" fill="#6ddc07"/>
  <g stroke="null" fill="#fff" id="layer101">
   <path stroke="null" id="svg_1" d="m16.49487,22.86736c-0.48408,-0.18618 -0.85648,-0.52133 -0.85648,-0.74476c0,-0.18618 -0.81923,-0.37238 -1.82465,-0.37238c-1.9736,0 -3.01628,-0.63304 -3.01628,-1.89912c0,-0.63304 0.26066,-0.70751 2.23427,-0.70751c1.22886,0 2.23427,-0.14895 2.23427,-0.37238c0,-0.22343 -1.22886,-0.37238 -2.97903,-0.37238c-2.86733,0 -3.01628,-0.03723 -3.35141,-0.96819c-0.22343,-0.52133 -0.37238,-1.11714 -0.37238,-1.30334c0,-0.18618 1.56399,-0.37238 3.46312,-0.40961l3.42589,-0.07448l-3.72379,-0.18618c-2.04808,-0.1117 -3.94722,-0.37238 -4.17064,-0.52133c-0.26066,-0.18618 -0.48408,-0.70751 -0.48408,-1.22886l0,-0.89371l8.34129,0l8.37852,0l0.74476,0.96819c1.11714,1.41504 1.07991,4.35684 -0.03723,5.13883l-0.81923,0.59581l0.81923,0c1.04266,0 1.11714,1.41504 0.1117,2.6439c-0.63304,0.81923 -1.04266,0.89371 -4.02169,0.96819c-1.78742,0.07448 -3.64931,-0.07448 -4.09617,-0.26066l0.00005,-0.00004l-0.00004,0zm5.02711,-3.23969c-0.55856,-0.07448 -1.56399,-0.07448 -2.23427,0c-0.67028,0.07448 -0.22343,0.14895 1.00543,0.14895c1.22886,0 1.78742,-0.07448 1.22886,-0.14895l-0.00002,0zm0.63304,-3.46312c-0.1117,-0.18618 -1.07991,-0.37238 -2.08532,-0.37238c-1.15438,0 -1.78742,0.14895 -1.63847,0.37238c0.1117,0.22343 1.07991,0.37238 2.08532,0.37238c1.15438,0 1.78742,-0.14895 1.63847,-0.37238z"/>
  </g>
</svg>